<!-- icon666.com - MILLIONS vector ICONS FREE --><svg version="1.1" id="Capa_1" xmlns="http://www.w3.org/2000/svg" xmlns:xlink="http://www.w3.org/1999/xlink" x="0px" y="0px" viewBox="0 0 495.268 495.268" style="enable-background:new 0 0 495.268 495.268;" xml:space="preserve"><g><path style="fill:#403E3E;" d="M59.862,495.268c-18.24,0.011-32.853-5.109-43.232-15.445 c-21.248-21.237-22.069-59.445-2.347-107.605l19.744,8.085c-15.776,38.528-16.651,70.091-2.325,84.416 c17.845,17.739,62.699,9.813,119.968-21.248c41.749-22.656,78.027-47.296,110.901-75.328l13.835,16.224 c-34.016,29.013-71.499,54.464-114.56,77.845C121.366,484.175,86.7,495.268,59.862,495.268z"></path><path style="fill:#403E3E;" d="M351.958,308.868l-15.541-14.624c45.707-48.597,82.709-97.877,106.987-142.539 C474.465,94.447,482.39,49.593,464.62,31.748c-14.464-14.475-46.219-13.6-84.907,2.336l-8.128-19.723 c48.32-19.925,86.741-19.083,108.139,2.315c25.547,25.664,19.307,77.227-17.568,145.205 C437.004,208.132,398.902,258.948,351.958,308.868z"></path><path style="fill:#403E3E;" d="M248.15,482.927c-129.397,0-234.667-105.269-234.667-234.667S118.753,13.593,248.15,13.593 S482.817,118.863,482.817,248.26S377.548,482.927,248.15,482.927z M248.15,34.927c-117.632,0-213.333,95.701-213.333,213.333 s95.701,213.333,213.333,213.333s213.333-95.701,213.333-213.333S365.782,34.927,248.15,34.927z"></path></g><g><polygon style="fill:#43D3E8;" points="162.326,344.217 141.484,312.26 312.15,141.593 354.817,184.26 216.15,322.927 "></polygon><polygon style="fill:#43D3E8;" points="290.817,365.593 312.15,344.217 312.15,226.927 248.15,226.927 "></polygon><polygon style="fill:#43D3E8;" points="130.817,205.593 162.326,184.26 269.484,184.26 269.484,248.26 "></polygon><polygon style="fill:#43D3E8;" points="162.326,344.217 98.326,322.927 119.169,301.593 173.484,301.593 "></polygon><path style="fill:#43D3E8;" d="M354.817,184.26c18.315-18.315,21.333-42.667,21.333-64c-21.333,0-45.696,3.019-64,21.333 L354.817,184.26z"></path></g></svg>