<svg width="89" height="31" viewBox="0 0 89 31" fill="#FFFFFF" xmlns="http://www.w3.org/2000/svg">
<path d="M13.728 15.8399L10.592 6.52789L7.488 15.8399H13.728ZM16.416 23.9999L14.848 19.3279H6.4L4.832 23.9999H0.608002L8.544 1.59989H12.832L20.8 23.9999H16.416Z" />
<path d="M26.815 18.9439C26.815 19.6052 26.9323 20.0639 27.167 20.3199C27.423 20.5546 27.8497 20.6719 28.447 20.6719H28.959V24.1599H28.287C26.9857 24.1599 25.9297 24.0212 25.119 23.7439C24.3083 23.4666 23.711 22.9652 23.327 22.2399C22.9643 21.4932 22.783 20.4586 22.783 19.1359V0.639893H26.815V18.9439Z" />
<path d="M38.974 20.8319C40.0407 20.8319 40.83 20.4799 41.342 19.7759C41.854 19.0506 42.11 18.1012 42.11 16.9279V15.1359C42.11 13.9199 41.8433 12.9706 41.31 12.2879C40.798 11.5839 39.9873 11.2319 38.878 11.2319C37.8327 11.2319 37.022 11.5626 36.446 12.2239C35.87 12.8639 35.582 13.8239 35.582 15.1039V17.0239C35.582 18.1759 35.8807 19.1039 36.478 19.8079C37.0967 20.4906 37.9287 20.8319 38.974 20.8319ZM40.126 24.3199C39.0167 24.3199 38.078 24.0959 37.31 23.6479C36.5633 23.1786 35.9873 22.5386 35.582 21.7279V30.3999H31.55V8.03189H35.582V10.3039C36.0087 9.45056 36.606 8.81056 37.374 8.38389C38.1633 7.93589 39.0807 7.71189 40.126 7.71189C41.278 7.71189 42.3127 7.98923 43.23 8.54389C44.1473 9.07723 44.8727 9.88789 45.406 10.9759C45.9607 12.0426 46.238 13.3546 46.238 14.9119V17.1199C46.238 18.6772 45.9607 19.9999 45.406 21.0879C44.8727 22.1546 44.1473 22.9652 43.23 23.5199C42.3127 24.0532 41.278 24.3199 40.126 24.3199Z" />
<path d="M51.516 5.40789C50.7693 5.40789 50.1613 5.20523 49.692 4.79989C49.2227 4.37323 48.988 3.82923 48.988 3.16789C48.988 2.48523 49.2227 1.94123 49.692 1.53589C50.1613 1.13056 50.7693 0.927893 51.516 0.927893C52.2627 0.927893 52.86 1.13056 53.308 1.53589C53.7773 1.94123 54.012 2.48523 54.012 3.16789C54.012 3.82923 53.7773 4.37323 53.308 4.79989C52.86 5.20523 52.2627 5.40789 51.516 5.40789ZM49.5 23.9999V8.03189H53.532V23.9999H49.5Z" />
<path d="M61.5445 15.2959V23.9999H57.5125V8.03189H61.5445V10.7839C62.0565 9.71723 62.7285 8.93856 63.5605 8.44789C64.3925 7.95723 65.3205 7.71189 66.3445 7.71189C67.9872 7.71189 69.2672 8.19189 70.1845 9.15189C71.1232 10.1119 71.5925 11.5412 71.5925 13.4399V23.9999H67.5605V14.5279C67.5605 13.4186 67.3472 12.5972 66.9205 12.0639C66.4938 11.5092 65.7898 11.2319 64.8085 11.2319C64.2112 11.2319 63.6672 11.3812 63.1765 11.6799C62.6858 11.9572 62.2912 12.3946 61.9925 12.9919C61.6938 13.5892 61.5445 14.3572 61.5445 15.2959Z" />
<path d="M88.7128 19.1679C88.4781 20.7892 87.7528 22.0586 86.5368 22.9759C85.3208 23.8719 83.7421 24.3199 81.8008 24.3199C79.6461 24.3199 77.9074 23.7119 76.5848 22.4959C75.2621 21.2586 74.6008 19.4666 74.6008 17.1199V14.9119C74.6008 12.5652 75.2621 10.7839 76.5848 9.56789C77.9074 8.33056 79.6674 7.71189 81.8648 7.71189C83.9768 7.71189 85.6621 8.34123 86.9208 9.59989C88.1794 10.8586 88.8088 12.6932 88.8088 15.1039V16.9599H78.7607C78.7607 17.1946 78.7714 17.4079 78.7928 17.5999C78.8141 17.7919 78.8354 17.9839 78.8568 18.1759C78.9848 19.0506 79.3047 19.7332 79.8167 20.2239C80.3501 20.6932 81.0861 20.9279 82.0247 20.9279C82.0674 20.9279 82.1101 20.9279 82.1527 20.9279C82.2167 20.9279 82.2701 20.9279 82.3128 20.9279C83.0381 20.8852 83.5928 20.7039 83.9768 20.3839C84.3821 20.0426 84.6487 19.6372 84.7767 19.1679H88.7128ZM78.7607 14.4319L79.1448 14.4959H84.9688C84.8834 13.3226 84.5954 12.4479 84.1048 11.8719C83.6354 11.2959 82.8994 11.0079 81.8968 11.0079C80.8728 11.0079 80.1048 11.3172 79.5928 11.9359C79.0808 12.5546 78.8034 13.3866 78.7607 14.4319Z" />
</svg>
