<svg width="99" height="29" viewBox="0 0 99 29" fill="none" xmlns="http://www.w3.org/2000/svg">
<path d="M5.63787 22.9434H0L7.32287 1.40899H14.3066L21.6295 22.9434H15.9916L10.8942 6.83466H10.7247L5.63787 22.9434ZM4.88545 14.4685H16.6699V18.422H4.88545V14.4685Z" fill="#18181B"/>
<path d="M28.5516 1.40899V22.9434H23.3694V1.40899H28.5516Z" fill="#18181B"/>
<path d="M31.2532 29V6.7926H36.3824V9.55801H36.5413C36.7533 9.06732 37.0535 8.59415 37.4421 8.13851C37.8378 7.68286 38.3394 7.31134 38.947 7.02393C39.5616 6.72951 40.2964 6.58231 41.1512 6.58231C42.2816 6.58231 43.3379 6.87672 44.3199 7.46555C45.309 8.05439 46.1073 8.96217 46.7149 10.1889C47.3225 11.4156 47.6263 12.9788 47.6263 14.8785C47.6263 16.7081 47.3331 18.2398 46.7467 19.4735C46.1674 20.7073 45.3832 21.6326 44.3941 22.2495C43.412 22.8663 42.3205 23.1748 41.1194 23.1748C40.2999 23.1748 39.5899 23.0416 38.9893 22.7752C38.3888 22.5088 37.8837 22.1583 37.4739 21.7237C37.0712 21.2891 36.7603 20.8229 36.5413 20.3252H36.4354V29H31.2532ZM36.3294 14.868C36.3294 15.7372 36.4459 16.4943 36.6791 17.1392C36.9193 17.7841 37.262 18.2854 37.7071 18.6429C38.1592 18.9934 38.6997 19.1686 39.3285 19.1686C39.9643 19.1686 40.5048 18.9934 40.9499 18.6429C41.395 18.2854 41.7306 17.7841 41.9566 17.1392C42.1898 16.4943 42.3064 15.7372 42.3064 14.868C42.3064 13.9988 42.1898 13.2452 41.9566 12.6073C41.7306 11.9694 41.395 11.4752 40.9499 11.1247C40.5119 10.7742 39.9714 10.599 39.3285 10.599C38.6926 10.599 38.1521 10.7707 37.7071 11.1142C37.262 11.4577 36.9193 11.9484 36.6791 12.5863C36.4459 13.2242 36.3294 13.9848 36.3294 14.868Z" fill="#18181B"/>
<path d="M49.7451 22.9434V6.7926H54.9272V22.9434H49.7451ZM52.3415 4.91044C51.6138 4.91044 50.9885 4.67211 50.4657 4.19543C49.9429 3.71175 49.6815 3.12993 49.6815 2.44996C49.6815 1.77701 49.9429 1.2022 50.4657 0.725527C50.9885 0.241842 51.6138 0 52.3415 0C53.0762 0 53.7015 0.241842 54.2172 0.725527C54.74 1.2022 55.0014 1.77701 55.0014 2.44996C55.0014 3.12993 54.74 3.71175 54.2172 4.19543C53.7015 4.67211 53.0762 4.91044 52.3415 4.91044Z" fill="#18181B"/>
<path d="M62.811 13.7324V22.9434H57.6289V6.7926H62.5567V9.7578H62.7368C63.0972 8.7694 63.7118 7.9948 64.5808 7.43401C65.4498 6.86621 66.4848 6.58231 67.6859 6.58231C68.8304 6.58231 69.823 6.83817 70.6638 7.34989C71.5116 7.8546 72.1686 8.56261 72.6349 9.47389C73.1083 10.3782 73.3414 11.4367 73.3343 12.6494V22.9434H68.1522V13.6588C68.1592 12.7615 67.9296 12.0606 67.4633 11.5558C67.0041 11.0511 66.3647 10.7988 65.5452 10.7988C65.0012 10.7988 64.5208 10.9179 64.1039 11.1563C63.6942 11.3876 63.3762 11.7206 63.1502 12.1552C62.9311 12.5898 62.8181 13.1155 62.811 13.7324Z" fill="#18181B"/>
<path d="M83.5549 23.2484C81.8522 23.2484 80.3827 22.9154 79.1463 22.2495C77.917 21.5765 76.9703 20.6197 76.3062 19.3789C75.6492 18.1311 75.3206 16.6485 75.3206 14.9311C75.3206 13.2628 75.6527 11.8047 76.3168 10.5569C76.9809 9.30215 77.917 8.32777 79.1251 7.63379C80.3332 6.9328 81.7568 6.58231 83.3959 6.58231C84.5546 6.58231 85.6143 6.76106 86.5752 7.11856C87.536 7.47607 88.3662 8.00532 89.0656 8.70631C89.765 9.4073 90.309 10.273 90.6976 11.3035C91.0862 12.3269 91.2805 13.5011 91.2805 14.826V16.1088H77.1328V13.1226H86.4586C86.4515 12.5758 86.3208 12.0886 86.0665 11.661C85.8122 11.2334 85.4624 10.9004 85.0173 10.6621C84.5793 10.4167 84.0742 10.2941 83.5019 10.2941C82.9226 10.2941 82.4033 10.4237 81.9441 10.6831C81.4848 10.9355 81.121 11.2825 80.8525 11.7241C80.5841 12.1587 80.4428 12.6529 80.4286 13.2067V16.2455C80.4286 16.9044 80.5593 17.4827 80.8207 17.9804C81.0821 18.4711 81.4531 18.8532 81.9335 19.1265C82.4139 19.3999 82.9862 19.5366 83.6503 19.5366C84.1095 19.5366 84.5263 19.4735 84.9008 19.3474C85.2752 19.2212 85.5967 19.0354 85.8651 18.7901C86.1336 18.5447 86.335 18.2433 86.4692 17.8858L91.2275 18.0225C91.0297 19.081 90.5952 20.0028 89.924 20.7879C89.2599 21.566 88.3873 22.1723 87.3064 22.607C86.2255 23.0346 84.975 23.2484 83.5549 23.2484Z" fill="#18181B"/>
<path d="M96.2446 23.2484C95.4816 23.2484 94.8281 22.982 94.2841 22.4492C93.7472 21.9165 93.4822 21.2716 93.4893 20.5145C93.4822 19.7715 93.7472 19.1371 94.2841 18.6113C94.8281 18.0786 95.4816 17.8122 96.2446 17.8122C96.9653 17.8122 97.6011 18.0786 98.1522 18.6113C98.7103 19.1371 98.9929 19.7715 99 20.5145C98.9929 21.0192 98.8587 21.4784 98.5973 21.892C98.3429 22.3055 98.0074 22.635 97.5905 22.8803C97.1808 23.1257 96.7321 23.2484 96.2446 23.2484Z" fill="#18181B"/>
</svg>
